<svg width="137.145" height="137.145" xmlns="http://www.w3.org/2000/svg">

 <g>
  <title>background</title>
  <rect fill="none" id="canvas_background"  />
 </g>
 <g>
  <title>Layer 1</title>
  <g id="svg_1">
   <g id="svg_2">
    <path fill="#FFF5FF" id="svg_3" d="m37.710999,89.197998l30.861,-28.834999l-10.286999,-9.612l-30.861,28.834999l10.286999,9.612zm72.003998,-89.197998l-82.286007,0c-15.148999,0 -27.428999,12.281 -27.428999,27.429001l0,82.287003c0,15.147995 12.28,27.429001 27.428999,27.429001l82.286007,0c15.149002,0 27.429001,-12.280006 27.429001,-27.429001l0,-82.287003c0,-15.148001 -12.279999,-27.429001 -27.429001,-27.429001zm13.715004,102.858002c0,11.361 -9.209999,20.571999 -20.571999,20.571999l-68.572002,0c-11.361,0 -20.570999,-9.210999 -20.570999,-20.571999l0,-68.572002c0,-11.361 9.209999,-20.572 20.570999,-20.572l68.572002,0c11.361,0 20.571999,9.210999 20.571999,20.572l0,68.572002zm-65.145,-52.107002l41.147999,38.446999l10.287003,-9.612l-41.148003,-38.445999l-10.286999,9.611z"/>
   </g>
  </g>
 </g>
</svg>